<svg width="18" height="15" viewBox="0 0 18 15" fill="none" xmlns="http://www.w3.org/2000/svg">
<path d="M14.976 7.70829H5.14754V6.45833H14.976L13.46 4.94229L14.3382 4.03846L17.383 7.08331L14.3382 10.1282L13.46 9.22433L14.976 7.70829ZM10.6684 4.47113V1.50642C10.6684 1.43163 10.6443 1.37019 10.5962 1.3221C10.5481 1.27402 10.4867 1.24998 10.4119 1.24998H2.42316C2.34837 1.24998 2.28694 1.27402 2.23885 1.3221C2.19077 1.37019 2.16673 1.43163 2.16673 1.50642V12.6602C2.16673 12.735 2.19077 12.7964 2.23885 12.8445C2.28694 12.8926 2.34837 12.9166 2.42316 12.9166H10.4119C10.4867 12.9166 10.5481 12.8926 10.5962 12.8445C10.6443 12.7964 10.6684 12.735 10.6684 12.6602V9.6955H11.9183V12.6602C11.9183 13.0758 11.7711 13.4308 11.4768 13.7251C11.1825 14.0195 10.8275 14.1666 10.4119 14.1666H2.42316C2.00757 14.1666 1.6526 14.0195 1.35827 13.7251C1.06392 13.4308 0.916748 13.0758 0.916748 12.6602V1.50642C0.916748 1.09082 1.06392 0.735854 1.35827 0.441521C1.6526 0.147173 2.00757 0 2.42316 0H10.4119C10.8275 0 11.1825 0.147173 11.4768 0.441521C11.7711 0.735854 11.9183 1.09082 11.9183 1.50642V4.47113H10.6684Z" fill="#EB8888"/>
</svg>
