<svg width="16" height="18" viewBox="0 0 20 22" fill="none" xmlns="http://www.w3.org/2000/svg">
<path d="M9.99993 10.4104C8.71662 10.4104 7.61803 9.92941 6.70414 8.96744C5.79026 8.00545 5.33331 6.84903 5.33331 5.49818C5.33331 4.1473 5.79026 2.99088 6.70414 2.02892C7.61803 1.06693 8.71662 0.585938 9.99993 0.585938C11.2832 0.585938 12.3818 1.06693 13.2957 2.02892C14.2096 2.99088 14.6665 4.1473 14.6665 5.49818C14.6665 6.84903 14.2096 8.00545 13.2957 8.96744C12.3818 9.92941 11.2832 10.4104 9.99993 10.4104ZM0 21.0986V17.9786C0 17.2912 0.177354 16.6547 0.532064 16.069C0.886752 15.4833 1.36067 15.033 1.95383 14.7181C3.27178 14.038 4.60126 13.5279 5.94228 13.1878C7.28329 12.8477 8.63584 12.6777 9.99993 12.6777C11.364 12.6777 12.7166 12.8477 14.0576 13.1878C15.3986 13.5279 16.7281 14.038 18.046 14.7181C18.6392 15.033 19.1131 15.4833 19.4678 16.069C19.8225 16.6547 19.9999 17.2912 19.9999 17.9786V21.0986H0Z" fill="white"/>
</svg>
