<svg width="current" height="current" viewBox="0 0 32 32" fill="none" xmlns="http://www.w3.org/2000/svg">
<mask id="mask0_377_514" style="mask-type:alpha" maskUnits="userSpaceOnUse" x="0" y="0" width="32" height="32">
<rect width="32" height="32" fill="#D9D9D9"/>
</mask>
<g mask="url(#mask0_377_514)">
<path d="M18.5998 29.2C18.2665 29.3778 17.9276 29.4056 17.5832 29.2834C17.2387 29.1611 16.9776 28.9334 16.7998 28.6L14.7998 24.6C14.6221 24.2667 14.5943 23.9278 14.7165 23.5834C14.8387 23.2389 15.0665 22.9778 15.3998 22.8C15.7332 22.6222 16.0721 22.5945 16.4165 22.7167C16.7609 22.8389 17.0221 23.0667 17.1998 23.4L19.1998 27.4C19.3776 27.7334 19.4054 28.0722 19.2832 28.4167C19.1609 28.7611 18.9332 29.0222 18.5998 29.2ZM26.5998 29.2C26.2665 29.3778 25.9276 29.4056 25.5832 29.2834C25.2387 29.1611 24.9776 28.9334 24.7998 28.6L22.7998 24.6C22.6221 24.2667 22.5943 23.9278 22.7165 23.5834C22.8387 23.2389 23.0665 22.9778 23.3998 22.8C23.7332 22.6222 24.0721 22.5945 24.4165 22.7167C24.7609 22.8389 25.0221 23.0667 25.1998 23.4L27.1998 27.4C27.3776 27.7334 27.4054 28.0722 27.2832 28.4167C27.1609 28.7611 26.9332 29.0222 26.5998 29.2ZM10.5998 29.2C10.2665 29.3778 9.92761 29.4056 9.58317 29.2834C9.23873 29.1611 8.97761 28.9334 8.79984 28.6L6.79984 24.6C6.62206 24.2667 6.59428 23.9278 6.7165 23.5834C6.83873 23.2389 7.0665 22.9778 7.39984 22.8C7.73317 22.6222 8.07206 22.5945 8.4165 22.7167C8.76095 22.8389 9.02206 23.0667 9.19984 23.4L11.1998 27.4C11.3776 27.7334 11.4054 28.0722 11.2832 28.4167C11.1609 28.7611 10.9332 29.0222 10.5998 29.2ZM9.99984 21.3334C7.97761 21.3334 6.24984 20.6167 4.8165 19.1834C3.38317 17.75 2.6665 16.0222 2.6665 14C2.6665 12.1556 3.27761 10.5445 4.49984 9.16669C5.72206 7.78891 7.23317 6.9778 9.03317 6.73335C9.74428 5.46669 10.7165 4.47224 11.9498 3.75002C13.1832 3.0278 14.5332 2.66669 15.9998 2.66669C17.9998 2.66669 19.7387 3.30558 21.2165 4.58335C22.6943 5.86113 23.5887 7.45558 23.8998 9.36669C25.4332 9.50002 26.7221 10.1334 27.7665 11.2667C28.8109 12.4 29.3332 13.7556 29.3332 15.3334C29.3332 17 28.7498 18.4167 27.5832 19.5834C26.4165 20.75 24.9998 21.3334 23.3332 21.3334H9.99984Z" fill="current"/>
</g>
</svg>
