<svg width="18" height="21" viewBox="0 0 18 21" fill="none" xmlns="http://www.w3.org/2000/svg">
<path d="M9 21C10.25 21 11.4208 20.7625 12.5125 20.2875C13.6042 19.8125 14.5542 19.1708 15.3625 18.3625C16.1708 17.5542 16.8125 16.6042 17.2875 15.5125C17.7625 14.4208 18 13.25 18 12C18 10.75 17.7625 9.57917 17.2875 8.4875C16.8125 7.39583 16.1708 6.44583 15.3625 5.6375C14.5542 4.82917 13.6042 4.1875 12.5125 3.7125C11.4208 3.2375 10.25 3 9 3H8.85L10.4 1.45L9 0L5 4L9 8L10.4 6.55L8.85 5H9C10.95 5 12.6042 5.67917 13.9625 7.0375C15.3208 8.39583 16 10.05 16 12C16 13.95 15.3208 15.6042 13.9625 16.9625C12.6042 18.3208 10.95 19 9 19C7.05 19 5.39583 18.3208 4.0375 16.9625C2.67917 15.6042 2 13.95 2 12H0C0 13.25 0.237499 14.4208 0.7125 15.5125C1.1875 16.6042 1.82917 17.5542 2.6375 18.3625C3.44583 19.1708 4.39583 19.8125 5.4875 20.2875C6.57917 20.7625 7.75 21 9 21Z" fill="#373737"/>
</svg>
