<svg width="current" height="current" viewBox="0 0 32 32" fill="none" xmlns="http://www.w3.org/2000/svg">
<mask id="mask0_377_517" style="mask-type:alpha" maskUnits="userSpaceOnUse" x="0" y="0" width="32" height="32">
<rect width="32" height="32" fill="#D9D9D9"/>
</mask>
<g mask="url(#mask0_377_517)">
<path d="M8.66663 25.9999C6.82392 25.9999 5.25213 25.3598 3.95127 24.0794C2.65042 22.7991 2 21.2376 2 19.3948C2 17.7641 2.52222 16.3137 3.56667 15.0436C4.61111 13.7735 5.94359 13.0222 7.5641 12.7898C7.99146 10.7966 8.99359 9.16667 10.5705 7.9C12.1474 6.63333 13.9572 6 16 6C18.4119 6 20.4593 6.84146 22.1422 8.52437C23.8251 10.2073 24.6666 12.2547 24.6666 14.6666V15.3333H25.0769C26.482 15.4427 27.6538 16.0077 28.5922 17.0282C29.5307 18.0487 29.9999 19.2615 29.9999 20.6666C29.9999 22.1538 29.4828 23.4145 28.4487 24.4487C27.4145 25.4828 26.1538 25.9999 24.6666 25.9999H8.66663Z" fill="current"/>
</g>
</svg>
