<svg width="24" height="23" viewBox="0 0 24 23" fill="none" xmlns="http://www.w3.org/2000/svg">
<path d="M16.515 1.11407L22.311 6.91007C22.5547 7.15383 22.7481 7.4432 22.88 7.76169C23.0119 8.08017 23.0798 8.42151 23.0798 8.76624C23.0798 9.11096 23.0119 9.45231 22.88 9.77079C22.7481 10.0893 22.5547 10.3787 22.311 10.6224L12.182 20.7491L19.2963 20.7502C19.5077 20.7502 19.712 20.8268 19.8714 20.9658C20.0307 21.1048 20.1344 21.2968 20.1631 21.5062L20.1713 21.6252C20.1713 21.8367 20.0947 22.041 19.9557 22.2003C19.8168 22.3597 19.6248 22.4633 19.4153 22.4921L19.2963 22.5002L9.48463 22.5014C9.1163 22.5221 8.74774 22.4647 8.40313 22.333C8.05851 22.2014 7.74562 21.9983 7.48497 21.7372L1.6878 15.9401C1.44404 15.6963 1.25069 15.4069 1.11876 15.0885C0.986844 14.77 0.918945 14.4286 0.918945 14.0839C0.918945 13.7392 0.986844 13.3978 1.11876 13.0794C1.25069 12.7609 1.44404 12.4715 1.6878 12.2277L12.8026 1.11407C13.0464 0.870314 13.3358 0.676955 13.6543 0.545034C13.9727 0.413114 14.3141 0.345215 14.6588 0.345215C15.0035 0.345215 15.3449 0.413114 15.6634 0.545034C15.9818 0.676955 16.2712 0.870314 16.515 1.11407ZM11.6476 18.7191L4.70013 11.7704L2.94197 13.4819C2.77811 13.646 2.68607 13.8684 2.68607 14.1002C2.68607 14.3321 2.77811 14.5545 2.94197 14.7186L8.7123 20.4889C8.87882 20.6503 9.10261 20.739 9.3345 20.7355C9.56638 20.732 9.78739 20.6366 9.94897 20.4702L11.6465 18.7179L11.6476 18.7191Z" fill="#373737"/>
</svg>
