<svg width="100" height="100" viewBox="0 0 148 148" fill="none" xmlns="http://www.w3.org/2000/svg">
<g opacity="0.9" filter="url(#filter0_d_653_295)">
<circle cx="74" cy="72" r="50" fill="#434343"/>
</g>
<mask id="mask0_653_295" style="mask-type:alpha" maskUnits="userSpaceOnUse" x="44" y="42" width="60" height="60">
<rect x="44" y="42" width="60" height="60" fill="#D9D9D9"/>
</mask>
<g mask="url(#mask0_653_295)">
<path d="M73.9519 95.7494C70.7115 95.7494 67.6506 95.1252 64.7692 93.8768C61.8878 92.6284 59.3718 90.9289 57.2211 88.7783C55.0705 86.6276 53.371 84.1076 52.1226 81.2181C50.8742 78.3288 50.25 75.2559 50.25 71.9995C50.25 68.7014 50.891 65.6076 52.1731 62.7183C53.4552 59.8288 55.1963 57.3152 57.3966 55.1774C59.597 53.0396 62.1707 51.3505 65.1178 50.1101C68.0649 48.8697 71.2083 48.2495 74.548 48.2495C77.673 48.2495 80.6345 48.7824 83.4326 49.8481C86.2306 50.9138 88.6882 52.389 90.8052 54.2736C92.9221 56.1582 94.6088 58.3977 95.8653 60.9923C97.1217 63.5868 97.7499 66.4001 97.7499 69.4321C97.7499 73.759 96.4638 77.1436 93.8917 79.5859C91.3196 82.0282 88.0224 83.2494 83.9999 83.2494H79.4711C78.7595 83.2494 78.1906 83.4818 77.7643 83.9465C77.338 84.4113 77.1249 84.961 77.1249 85.5956C77.1249 86.3681 77.4374 87.171 78.0624 88.0043C78.6874 88.8376 78.9999 89.7943 78.9999 90.8745C78.9999 92.5251 78.5431 93.7502 77.6297 94.5499C76.7162 95.3496 75.4903 95.7494 73.9519 95.7494ZM60.2499 73.8744C61.1409 73.8744 61.8845 73.5763 62.4807 72.9802C63.0768 72.384 63.3749 71.6405 63.3749 70.7495C63.3749 69.8585 63.0768 69.1149 62.4807 68.5187C61.8845 67.9226 61.1409 67.6245 60.2499 67.6245C59.3589 67.6245 58.6154 67.9226 58.0192 68.5187C57.4231 69.1149 57.125 69.8585 57.125 70.7495C57.125 71.6405 57.4231 72.384 58.0192 72.9802C58.6154 73.5763 59.3589 73.8744 60.2499 73.8744ZM67.7499 63.8744C68.6409 63.8744 69.3845 63.5763 69.9807 62.9802C70.5768 62.384 70.8749 61.6405 70.8749 60.7495C70.8749 59.8585 70.5768 59.1149 69.9807 58.5187C69.3845 57.9226 68.6409 57.6245 67.7499 57.6245C66.8589 57.6245 66.1154 57.9226 65.5192 58.5187C64.9231 59.1149 64.625 59.8585 64.625 60.7495C64.625 61.6405 64.9231 62.384 65.5192 62.9802C66.1154 63.5763 66.8589 63.8744 67.7499 63.8744ZM80.2499 63.8744C81.1409 63.8744 81.8845 63.5763 82.4807 62.9802C83.0768 62.384 83.3749 61.6405 83.3749 60.7495C83.3749 59.8585 83.0768 59.1149 82.4807 58.5187C81.8845 57.9226 81.1409 57.6245 80.2499 57.6245C79.3589 57.6245 78.6154 57.9226 78.0192 58.5187C77.4231 59.1149 77.125 59.8585 77.125 60.7495C77.125 61.6405 77.4231 62.384 78.0192 62.9802C78.6154 63.5763 79.3589 63.8744 80.2499 63.8744ZM87.7499 73.8744C88.6409 73.8744 89.3845 73.5763 89.9807 72.9802C90.5768 72.384 90.8749 71.6405 90.8749 70.7495C90.8749 69.8585 90.5768 69.1149 89.9807 68.5187C89.3845 67.9226 88.6409 67.6245 87.7499 67.6245C86.8589 67.6245 86.1154 67.9226 85.5192 68.5187C84.9231 69.1149 84.625 69.8585 84.625 70.7495C84.625 71.6405 84.9231 72.384 85.5192 72.9802C86.1154 73.5763 86.8589 73.8744 87.7499 73.8744ZM73.9519 91.9995C74.3589 91.9995 74.677 91.8993 74.9062 91.699C75.1354 91.4987 75.2499 91.2238 75.2499 90.8745C75.2499 90.2911 74.9374 89.6357 74.3124 88.9081C73.6874 88.1806 73.3749 87.0411 73.3749 85.4898C73.3749 83.7078 73.9791 82.2639 75.1874 81.1581C76.3958 80.0524 77.8749 79.4995 79.6249 79.4995H83.9999C86.9423 79.4995 89.3445 78.6373 91.2067 76.9129C93.0689 75.1885 93.9999 72.6949 93.9999 69.4321C93.9999 64.3744 92.0608 60.2046 88.1826 56.9225C84.3044 53.6405 79.7595 51.9995 74.548 51.9995C68.8333 51.9995 63.9799 53.937 59.9879 57.812C55.9959 61.687 53.9999 66.4161 53.9999 71.9995C53.9999 77.5411 55.9479 82.2599 59.8437 86.1557C63.7395 90.0515 68.4422 91.9995 73.9519 91.9995Z" fill="white"/>
</g>
<defs>
<filter id="filter0_d_653_295" x="0" y="0" width="148" height="148" filterUnits="userSpaceOnUse" color-interpolation-filters="sRGB">
<feFlood flood-opacity="0" result="BackgroundImageFix"/>
<feColorMatrix in="SourceAlpha" type="matrix" values="0 0 0 0 0 0 0 0 0 0 0 0 0 0 0 0 0 0 127 0" result="hardAlpha"/>
<feMorphology radius="4" operator="dilate" in="SourceAlpha" result="effect1_dropShadow_653_295"/>
<feOffset dy="2"/>
<feGaussianBlur stdDeviation="10"/>
<feComposite in2="hardAlpha" operator="out"/>
<feColorMatrix type="matrix" values="0 0 0 0 0 0 0 0 0 0 0 0 0 0 0 0 0 0 0.1 0"/>
<feBlend mode="normal" in2="BackgroundImageFix" result="effect1_dropShadow_653_295"/>
<feBlend mode="normal" in="SourceGraphic" in2="effect1_dropShadow_653_295" result="shape"/>
</filter>
</defs>
</svg>
