<svg width="100" height="100" viewBox="0 0 148 148" fill="none" xmlns="http://www.w3.org/2000/svg">
<g filter="url(#filter0_d_610_619)">
<circle cx="74" cy="72" r="48" stroke="#434343" stroke-width="4" shape-rendering="crispEdges"/>
</g>
<mask id="mask0_610_619" style="mask-type:alpha" maskUnits="userSpaceOnUse" x="40" y="38" width="68" height="68">
<rect x="40.6666" y="38.667" width="66.6667" height="66.6667" fill="#D9D9D9"/>
</mask>
<g mask="url(#mask0_610_619)">
<path d="M73.9465 98.3887C70.3461 98.3887 66.9451 97.6952 63.7435 96.308C60.542 94.9209 57.7464 93.0326 55.3568 90.643C52.9672 88.2534 51.0789 85.4534 49.6918 82.2429C48.3046 79.0325 47.6111 75.6181 47.6111 71.9999C47.6111 68.3354 48.3234 64.8979 49.7479 61.6875C51.1724 58.477 53.107 55.6841 55.5518 53.3087C57.9966 50.9334 60.8563 49.0566 64.1308 47.6784C67.4054 46.3002 70.8981 45.6111 74.6089 45.6111C78.0811 45.6111 81.3717 46.2031 84.4806 47.3873C87.5896 48.5714 90.3202 50.2105 92.6724 52.3045C95.0246 54.3985 96.8987 56.8869 98.2947 59.7697C99.6907 62.6525 100.389 65.7784 100.389 69.1473C100.389 73.955 98.9598 77.7156 96.1018 80.4293C93.244 83.143 89.5804 84.4998 85.111 84.4998H80.079C79.2884 84.4998 78.6562 84.758 78.1825 85.2744C77.7089 85.7908 77.4721 86.4016 77.4721 87.1068C77.4721 87.9651 77.8193 88.8572 78.5137 89.783C79.2082 90.709 79.5554 91.772 79.5554 92.9721C79.5554 94.8062 79.0479 96.1674 78.033 97.056C77.018 97.9445 75.6559 98.3887 73.9465 98.3887ZM58.7221 74.0832C59.7121 74.0832 60.5383 73.752 61.2007 73.0896C61.8631 72.4272 62.1943 71.601 62.1943 70.611C62.1943 69.621 61.8631 68.7948 61.2007 68.1324C60.5383 67.47 59.7121 67.1389 58.7221 67.1389C57.7321 67.1389 56.9059 67.47 56.2435 68.1324C55.5812 68.7948 55.25 69.621 55.25 70.611C55.25 71.601 55.5812 72.4272 56.2435 73.0896C56.9059 73.752 57.7321 74.0832 58.7221 74.0832ZM67.0555 62.9721C68.0455 62.9721 68.8717 62.6409 69.5341 61.9785C70.1964 61.3161 70.5276 60.4899 70.5276 59.4999C70.5276 58.5099 70.1964 57.6837 69.5341 57.0213C68.8717 56.3589 68.0455 56.0278 67.0555 56.0278C66.0655 56.0278 65.2393 56.3589 64.5768 57.0213C63.9145 57.6837 63.5833 58.5099 63.5833 59.4999C63.5833 60.4899 63.9145 61.3161 64.5768 61.9785C65.2393 62.6409 66.0655 62.9721 67.0555 62.9721ZM80.9444 62.9721C81.9343 62.9721 82.7606 62.6409 83.423 61.9785C84.0853 61.3161 84.4165 60.4899 84.4165 59.4999C84.4165 58.5099 84.0853 57.6837 83.423 57.0213C82.7606 56.3589 81.9343 56.0278 80.9444 56.0278C79.9543 56.0278 79.1281 56.3589 78.4657 57.0213C77.8034 57.6837 77.4722 58.5099 77.4722 59.4999C77.4722 60.4899 77.8034 61.3161 78.4657 61.9785C79.1281 62.6409 79.9543 62.9721 80.9444 62.9721ZM89.2777 74.0832C90.2677 74.0832 91.0939 73.752 91.7563 73.0896C92.4187 72.4272 92.7498 71.601 92.7498 70.611C92.7498 69.621 92.4187 68.7948 91.7563 68.1324C91.0939 67.47 90.2677 67.1389 89.2777 67.1389C88.2877 67.1389 87.4615 67.47 86.7991 68.1324C86.1367 68.7948 85.8055 69.621 85.8055 70.611C85.8055 71.601 86.1367 72.4272 86.7991 73.0896C87.4615 73.752 88.2877 74.0832 89.2777 74.0832ZM73.9465 94.2221C74.3988 94.2221 74.7522 94.1108 75.0068 93.8882C75.2615 93.6657 75.3888 93.3603 75.3888 92.9721C75.3888 92.324 75.0416 91.5957 74.3471 90.7873C73.6527 89.9789 73.3055 88.7129 73.3055 86.9892C73.3055 85.0092 73.9768 83.4048 75.3193 82.1762C76.6619 80.9476 78.3055 80.3332 80.2499 80.3332H85.111C88.3803 80.3332 91.0494 79.3753 93.1185 77.4593C95.1876 75.5433 96.2221 72.7727 96.2221 69.1473C96.2221 63.5277 94.0676 58.8945 89.7584 55.2478C85.4493 51.601 80.3995 49.7777 74.6089 49.7777C68.2591 49.7777 62.8665 51.9305 58.431 56.236C53.9955 60.5416 51.7777 65.7962 51.7777 71.9999C51.7777 78.1573 53.942 83.4004 58.2707 87.7291C62.5994 92.0578 67.8247 94.2221 73.9465 94.2221Z" fill="#434343"/>
</g>
<defs>
<filter id="filter0_d_610_619" x="0" y="0" width="148" height="148" filterUnits="userSpaceOnUse" color-interpolation-filters="sRGB">
<feFlood flood-opacity="0" result="BackgroundImageFix"/>
<feColorMatrix in="SourceAlpha" type="matrix" values="0 0 0 0 0 0 0 0 0 0 0 0 0 0 0 0 0 0 127 0" result="hardAlpha"/>
<feMorphology radius="4" operator="dilate" in="SourceAlpha" result="effect1_dropShadow_610_619"/>
<feOffset dy="2"/>
<feGaussianBlur stdDeviation="10"/>
<feComposite in2="hardAlpha" operator="out"/>
<feColorMatrix type="matrix" values="0 0 0 0 0 0 0 0 0 0 0 0 0 0 0 0 0 0 0.1 0"/>
<feBlend mode="normal" in2="BackgroundImageFix" result="effect1_dropShadow_610_619"/>
<feBlend mode="normal" in="SourceGraphic" in2="effect1_dropShadow_610_619" result="shape"/>
</filter>
</defs>
</svg>
