<svg width="32" height="32" viewBox="0 0 32 32" fill="none" xmlns="http://www.w3.org/2000/svg">
<mask id="mask0_335_23" style="mask-type:alpha" maskUnits="userSpaceOnUse" x="0" y="0" width="32" height="32">
<rect width="32" height="32" fill="#D9D9D9"/>
</mask>
<g mask="url(#mask0_335_23)">
<path d="M16 15.5898C14.7167 15.5898 13.6181 15.1329 12.7042 14.219C11.7903 13.3051 11.3333 12.2065 11.3333 10.9232C11.3333 9.63989 11.7903 8.54129 12.7042 7.62743C13.6181 6.71354 14.7167 6.25659 16 6.25659C17.2833 6.25659 18.3819 6.71354 19.2958 7.62743C20.2097 8.54129 20.6666 9.63989 20.6666 10.9232C20.6666 12.2065 20.2097 13.3051 19.2958 14.219C18.3819 15.1329 17.2833 15.5898 16 15.5898ZM6 25.7437V22.7796C6 22.1266 6.17736 21.5219 6.53207 20.9655C6.88676 20.4091 7.36068 19.9813 7.95383 19.6822C9.27179 19.036 10.6013 18.5514 11.9423 18.2284C13.2833 17.9053 14.6359 17.7438 16 17.7438C17.3641 17.7438 18.7166 17.9053 20.0576 18.2284C21.3987 18.5514 22.7281 19.036 24.0461 19.6822C24.6393 19.9813 25.1132 20.4091 25.4679 20.9655C25.8226 21.5219 25.9999 22.1266 25.9999 22.7796V25.7437H6Z" fill="#373737"/>
</g>
</svg>
