<svg width="20" height="19" viewBox="0 0 20 19" fill="none" xmlns="http://www.w3.org/2000/svg">
<path d="M7.07688 11.8461H16.423L13.3192 7.76923L10.9422 10.8077L9.373 8.86538L7.07688 11.8461ZM6.05765 15.5C5.55252 15.5 5.12496 15.325 4.77498 14.975C4.42498 14.625 4.24998 14.1974 4.24998 13.6923V2.3077C4.24998 1.80257 4.42498 1.375 4.77498 1.025C5.12496 0.675 5.55252 0.5 6.05765 0.5H17.4422C17.9473 0.5 18.3749 0.675 18.7249 1.025C19.0749 1.375 19.2499 1.80257 19.2499 2.3077V13.6923C19.2499 14.1974 19.0749 14.625 18.7249 14.975C18.3749 15.325 17.9473 15.5 17.4422 15.5H6.05765ZM2.55768 18.9999C2.05256 18.9999 1.625 18.8249 1.275 18.4749C0.925 18.1249 0.75 17.6973 0.75 17.1922V4.3077H2.24998V17.1922C2.24998 17.2692 2.28202 17.3397 2.34613 17.4038C2.41024 17.4679 2.48076 17.5 2.55768 17.5H15.4422V18.9999H2.55768Z" fill="white"/>
</svg>
