<svg width="current" height="current" viewBox="0 0 40 40" fill="none" xmlns="http://www.w3.org/2000/svg">
<circle cx="20" cy="20" r="20" fill="#434343"/>
<mask id="mask0_740_1062" style="mask-type:alpha" maskUnits="userSpaceOnUse" x="8" y="9" width="22" height="22">
<rect x="8" y="9" width="22" height="22" fill="#D9D9D9"/>
</mask>
<g mask="url(#mask0_740_1062)">
<path d="M24.4999 28.937C23.7999 28.937 23.2046 28.6919 22.714 28.2017C22.2234 27.7116 21.978 27.1164 21.978 26.4162C21.978 26.3017 21.9871 26.1832 22.0053 26.0606C22.0236 25.938 22.0509 25.825 22.0873 25.7216L15.3075 21.7517C15.0654 21.9926 14.7898 22.181 14.4807 22.3167C14.1716 22.4524 13.8443 22.5203 13.4988 22.5203C12.7986 22.5203 12.2034 22.2753 11.7133 21.7854C11.2231 21.2954 10.978 20.7005 10.978 20.0005C10.978 19.3006 11.2231 18.7053 11.7133 18.2146C12.2034 17.724 12.7986 17.4787 13.4988 17.4787C13.8443 17.4787 14.1716 17.5465 14.4807 17.6823C14.7898 17.818 15.0654 18.0063 15.3075 18.2473L22.0873 14.2774C22.0509 14.174 22.0236 14.061 22.0053 13.9384C21.9871 13.8158 21.978 13.6973 21.978 13.5828C21.978 12.8826 22.223 12.2874 22.713 11.7972C23.2029 11.3071 23.7979 11.062 24.4978 11.062C25.1977 11.062 25.793 11.307 26.2837 11.7969C26.7743 12.2869 27.0196 12.8819 27.0196 13.5818C27.0196 14.2817 26.7746 14.877 26.2844 15.3677C25.7943 15.8583 25.1991 16.1036 24.4988 16.1036C24.1533 16.1036 23.826 16.0358 23.5169 15.9C23.2079 15.7643 22.9323 15.576 22.6902 15.3351L15.9104 19.3049C15.9468 19.4083 15.9741 19.5212 15.9923 19.6433C16.0105 19.7655 16.0196 19.8836 16.0196 19.9977C16.0196 20.1117 16.0105 20.2304 15.9923 20.3538C15.9741 20.4772 15.9468 20.5906 15.9104 20.694L22.6902 24.6639C22.9323 24.423 23.2079 24.2347 23.5169 24.0989C23.826 23.9632 24.1533 23.8953 24.4988 23.8953C25.1991 23.8953 25.7943 24.1403 26.2844 24.6303C26.7746 25.1202 27.0196 25.7152 27.0196 26.4151C27.0196 27.1151 26.7747 27.7104 26.2847 28.201C25.7948 28.6916 25.1998 28.937 24.4999 28.937Z" fill="white"/>
</g>
</svg>
