<svg width="current" height="current" viewBox="0 0 41 41" fill="none" xmlns="http://www.w3.org/2000/svg">
<path d="M39.5482 20.2741C39.5482 30.9189 30.9189 39.5482 20.2741 39.5482C9.62931 39.5482 1 30.9189 1 20.2741C1 9.62931 9.62931 1 20.2741 1C30.9189 1 39.5482 9.62931 39.5482 20.2741Z" stroke="#EB8888" stroke-width="2"/>
<mask id="mask0_377_526" style="mask-type:alpha" maskUnits="userSpaceOnUse" x="5" y="7" width="27" height="26">
<rect x="5.48682" y="7.3158" width="25.6055" height="25.6055" fill="#D9D9D9"/>
</mask>
<g mask="url(#mask0_377_526)">
<path d="M24.691 30.5207C23.8764 30.5207 23.1835 30.2354 22.6125 29.6649C22.0414 29.0944 21.7559 28.4017 21.7559 27.5867C21.7559 27.4535 21.7665 27.3156 21.7877 27.1729C21.8089 27.0302 21.8407 26.8987 21.8831 26.7783L13.9921 22.1578C13.7104 22.4382 13.3896 22.6574 13.0299 22.8154C12.6701 22.9734 12.2892 23.0524 11.8871 23.0524C11.0721 23.0524 10.3793 22.7672 9.80886 22.197C9.23837 21.6267 8.95312 20.9343 8.95312 20.1196C8.95312 19.305 9.23837 18.6121 9.80886 18.0411C10.3793 17.47 11.0721 17.1845 11.8871 17.1845C12.2892 17.1845 12.6701 17.2635 13.0299 17.4214C13.3896 17.5794 13.7104 17.7986 13.9921 18.079L21.8831 13.4585C21.8407 13.3382 21.8089 13.2066 21.7877 13.0639C21.7665 12.9212 21.7559 12.7833 21.7559 12.6501C21.7559 11.8351 22.041 11.1424 22.6113 10.5719C23.1815 10.0014 23.874 9.71619 24.6886 9.71619C25.5033 9.71619 26.1961 10.0013 26.7672 10.5716C27.3383 11.1418 27.6238 11.8343 27.6238 12.6489C27.6238 13.4636 27.3385 14.1564 26.7681 14.7275C26.1976 15.2985 25.5048 15.5841 24.6898 15.5841C24.2877 15.5841 23.9068 15.5051 23.547 15.3471C23.1873 15.1891 22.8665 14.9699 22.5848 14.6895L14.6938 19.31C14.7362 19.4304 14.768 19.5617 14.7892 19.7039C14.8104 19.8461 14.821 19.9836 14.821 20.1163C14.821 20.249 14.8104 20.3872 14.7892 20.5308C14.768 20.6744 14.7362 20.8064 14.6938 20.9268L22.5848 25.5473C22.8665 25.2669 23.1873 25.0477 23.547 24.8897C23.9068 24.7317 24.2877 24.6528 24.6898 24.6528C25.5048 24.6528 26.1976 24.9379 26.7681 25.5081C27.3385 26.0784 27.6238 26.7709 27.6238 27.5855C27.6238 28.4001 27.3387 29.093 26.7684 29.6641C26.1981 30.2351 25.5057 30.5207 24.691 30.5207Z" fill="#EB8888"/>
</g>
</svg>
