<svg width="32" height="32" viewBox="0 0 32 32" fill="none" xmlns="http://www.w3.org/2000/svg">
<mask id="mask0_377_511" style="mask-type:alpha" maskUnits="userSpaceOnUse" x="0" y="0" width="32" height="32">
<rect width="32" height="32" fill="#D9D9D9"/>
</mask>
<g mask="url(#mask0_377_511)">
<path d="M7.99984 25.3334C7.62206 25.3334 7.30539 25.2056 7.04984 24.95C6.79428 24.6945 6.6665 24.3778 6.6665 24C6.6665 23.6222 6.79428 23.3056 7.04984 23.05C7.30539 22.7945 7.62206 22.6667 7.99984 22.6667C8.37761 22.6667 8.69428 22.7945 8.94984 23.05C9.20539 23.3056 9.33317 23.6222 9.33317 24C9.33317 24.3778 9.20539 24.6945 8.94984 24.95C8.69428 25.2056 8.37761 25.3334 7.99984 25.3334ZM23.9998 25.3334C23.6221 25.3334 23.3054 25.2056 23.0498 24.95C22.7943 24.6945 22.6665 24.3778 22.6665 24C22.6665 23.6222 22.7943 23.3056 23.0498 23.05C23.3054 22.7945 23.6221 22.6667 23.9998 22.6667C24.3776 22.6667 24.6943 22.7945 24.9498 23.05C25.2054 23.3056 25.3332 23.6222 25.3332 24C25.3332 24.3778 25.2054 24.6945 24.9498 24.95C24.6943 25.2056 24.3776 25.3334 23.9998 25.3334ZM11.9998 30.6667C11.6221 30.6667 11.3054 30.5389 11.0498 30.2834C10.7943 30.0278 10.6665 29.7111 10.6665 29.3334C10.6665 28.9556 10.7943 28.6389 11.0498 28.3834C11.3054 28.1278 11.6221 28 11.9998 28C12.3776 28 12.6943 28.1278 12.9498 28.3834C13.2054 28.6389 13.3332 28.9556 13.3332 29.3334C13.3332 29.7111 13.2054 30.0278 12.9498 30.2834C12.6943 30.5389 12.3776 30.6667 11.9998 30.6667ZM15.9998 25.3334C15.6221 25.3334 15.3054 25.2056 15.0498 24.95C14.7943 24.6945 14.6665 24.3778 14.6665 24C14.6665 23.6222 14.7943 23.3056 15.0498 23.05C15.3054 22.7945 15.6221 22.6667 15.9998 22.6667C16.3776 22.6667 16.6943 22.7945 16.9498 23.05C17.2054 23.3056 17.3332 23.6222 17.3332 24C17.3332 24.3778 17.2054 24.6945 16.9498 24.95C16.6943 25.2056 16.3776 25.3334 15.9998 25.3334ZM19.9998 30.6667C19.6221 30.6667 19.3054 30.5389 19.0498 30.2834C18.7943 30.0278 18.6665 29.7111 18.6665 29.3334C18.6665 28.9556 18.7943 28.6389 19.0498 28.3834C19.3054 28.1278 19.6221 28 19.9998 28C20.3776 28 20.6943 28.1278 20.9498 28.3834C21.2054 28.6389 21.3332 28.9556 21.3332 29.3334C21.3332 29.7111 21.2054 30.0278 20.9498 30.2834C20.6943 30.5389 20.3776 30.6667 19.9998 30.6667ZM9.99984 21.3334C7.97761 21.3334 6.24984 20.6167 4.8165 19.1834C3.38317 17.75 2.6665 16.0222 2.6665 14C2.6665 12.1556 3.27761 10.5445 4.49984 9.16669C5.72206 7.78891 7.23317 6.9778 9.03317 6.73335C9.74428 5.46669 10.7165 4.47224 11.9498 3.75002C13.1832 3.0278 14.5332 2.66669 15.9998 2.66669C17.9998 2.66669 19.7387 3.30558 21.2165 4.58335C22.6943 5.86113 23.5887 7.45558 23.8998 9.36669C25.4332 9.50002 26.7221 10.1334 27.7665 11.2667C28.8109 12.4 29.3332 13.7556 29.3332 15.3334C29.3332 17 28.7498 18.4167 27.5832 19.5834C26.4165 20.75 24.9998 21.3334 23.3332 21.3334H9.99984Z" fill="current"/>
</g>
</svg>
