<svg width="32" height="32" viewBox="0 0 32 32" fill="none" xmlns="http://www.w3.org/2000/svg">
<mask id="mask0_377_520" style="mask-type:alpha" maskUnits="userSpaceOnUse" x="0" y="0" width="32" height="32">
<rect width="32" height="32" fill="#D9D9D9"/>
</mask>
<g mask="url(#mask0_377_520)">
<path d="M14.9997 6.94873V2.0257H16.9997V6.94873H14.9997ZM23.0971 10.3077L21.7253 8.93593L25.1638 5.38466L26.5817 6.8231L23.0971 10.3077ZM25.051 17V15H29.974V17H25.051ZM14.9997 29.9743V25.0641H16.9997V29.9743H14.9997ZM8.92792 10.2538L5.38436 6.83593L6.83562 5.43083L10.3202 8.9026L8.92792 10.2538ZM25.1433 26.6153L21.7253 23.0641L23.0766 21.7256L26.5689 25.1231L25.1433 26.6153ZM2.02539 17V15H6.94842V17H2.02539ZM6.82279 26.6153L5.43052 25.1641L8.86896 21.7256L9.59202 22.4077L10.3279 23.1102L6.82279 26.6153ZM16.0027 23.3333C13.9665 23.3333 12.2348 22.6206 10.8074 21.1953C9.38007 19.77 8.66639 18.0392 8.66639 16.003C8.66639 13.9668 9.37906 12.2351 10.8044 10.8077C12.2297 9.38037 13.9605 8.6667 15.9967 8.6667C18.0329 8.6667 19.7646 9.37936 21.192 10.8047C22.6193 12.23 23.333 13.9608 23.333 15.997C23.333 18.0332 22.6203 19.7649 21.195 21.1923C19.7697 22.6196 18.0389 23.3333 16.0027 23.3333Z" fill="current"/>
</g>
</svg>
