<svg width="42" height="41" viewBox="0 0 42 41" fill="none" xmlns="http://www.w3.org/2000/svg">
<path d="M40.4838 20.2741C40.4838 30.9189 31.8545 39.5482 21.2097 39.5482C10.5649 39.5482 1.93555 30.9189 1.93555 20.2741C1.93555 9.62931 10.5649 1 21.2097 1C31.8545 1 40.4838 9.62931 40.4838 20.2741Z" stroke="#EB8888" stroke-width="2"/>
<g opacity="0.8">
<mask id="mask0_377_531" style="mask-type:alpha" maskUnits="userSpaceOnUse" x="8" y="7" width="27" height="27">
<rect x="8.38428" y="7.44885" width="26.0711" height="26.0711" fill="#D9D9D9"/>
</mask>
<g mask="url(#mask0_377_531)">
<path d="M28.8698 16.8517L25.2036 13.2189L26.6304 11.7921C26.9424 11.4802 27.3267 11.3242 27.7835 11.3242C28.2403 11.3242 28.6247 11.4802 28.9366 11.7921L30.2799 13.1354C30.5918 13.4473 30.7534 13.8261 30.7645 14.2718C30.7757 14.7174 30.6252 15.0962 30.3133 15.4082L28.8698 16.8517ZM27.6916 18.0466L16.0202 29.718H12.354V26.0518L24.0254 14.3804L27.6916 18.0466Z" fill="#EB8888"/>
</g>
</g>
</svg>
