<svg width="current" height="current" viewBox="0 0 40 40" fill="none" xmlns="http://www.w3.org/2000/svg">
<circle cx="20" cy="20" r="19.2" fill="white" stroke="#434343" stroke-width="1.6"/>
<mask id="mask0_740_1072" style="mask-type:alpha" maskUnits="userSpaceOnUse" x="6" y="6" width="28" height="28">
<rect x="6" y="6" width="28" height="28" fill="#D9D9D9"/>
</mask>
<g mask="url(#mask0_740_1072)">
<path d="M14.5261 29.9169C13.9443 29.9169 13.4474 29.7109 13.0353 29.2988C12.6232 28.8867 12.4172 28.3898 12.4172 27.8079V13.0003H11.2505V11.2503H16.5005V10.2183H23.5005V11.2503H28.7504V13.0003H27.5838V27.8079C27.5838 28.3972 27.3796 28.8961 26.9713 29.3044C26.5629 29.7127 26.0641 29.9169 25.4748 29.9169H14.5261ZM25.8338 13.0003H14.1671V27.8079C14.1671 27.9126 14.2008 27.9986 14.2681 28.066C14.3354 28.1333 14.4214 28.1669 14.5261 28.1669H25.4748C25.5645 28.1669 25.6468 28.1295 25.7216 28.0548C25.7964 27.98 25.8338 27.8977 25.8338 27.8079V13.0003ZM16.9716 25.8336H18.7216V15.3336H16.9716V25.8336ZM21.2793 25.8336H23.0293V15.3336H21.2793V25.8336Z" fill="#434343"/>
</g>
</svg>
